<svg xmlns="http://www.w3.org/2000/svg" viewBox="0 0 128 128" role="img" aria-label="LaunchLift AI">
  <defs>
    <linearGradient id="mark" x1="18" y1="16" x2="110" y2="112" gradientUnits="userSpaceOnUse">
      <stop stop-color="#6f4acb"/>
      <stop offset="0.55" stop-color="#e45a84"/>
      <stop offset="1" stop-color="#15a592"/>
    </linearGradient>
  </defs>
  <rect width="128" height="128" rx="34" fill="#171123"/>
  <rect x="14" y="14" width="100" height="100" rx="28" fill="url(#mark)"/>
  <path fill="#fff" d="M71 28c12 4 22 14 26 26-12 2-24 8-35 19L49 86l-7-7 13-13c11-11 17-23 16-38Zm-8 14c-2 7-7 16-15 24L35 79l14 14 13-13c8-8 17-13 24-15-4-10-13-19-23-23Zm-23 46 9 9-20 6 6-20 5 5Zm42-34a8 8 0 1 1-16 0 8 8 0 0 1 16 0Z"/>
</svg>
