<svg xmlns="http://www.w3.org/2000/svg" width="1200" height="630" viewBox="0 0 1200 630" role="img" aria-label="LaunchLift AI Android launch package">
  <defs>
    <linearGradient id="bg" x1="0" y1="0" x2="1200" y2="630" gradientUnits="userSpaceOnUse">
      <stop stop-color="#171123"/>
      <stop offset="0.58" stop-color="#35215f"/>
      <stop offset="1" stop-color="#0f766e"/>
    </linearGradient>
    <linearGradient id="mark" x1="72" y1="72" x2="198" y2="198" gradientUnits="userSpaceOnUse">
      <stop stop-color="#6f4acb"/>
      <stop offset="0.55" stop-color="#e45a84"/>
      <stop offset="1" stop-color="#15a592"/>
    </linearGradient>
  </defs>
  <rect width="1200" height="630" fill="url(#bg)"/>
  <rect x="74" y="76" width="128" height="128" rx="34" fill="url(#mark)"/>
  <path fill="#fff" d="M145 106c24 8 43 27 51 51-24 4-47 17-68 38l-26 26-14-14 26-26c21-21 34-44 31-75Zm-15 27c-4 14-14 32-30 48l-25 25 28 28 25-25c16-16 34-26 48-30-8-20-26-38-46-46Zm-45 91 18 18-40 12 12-40 10 10Zm84-68a16 16 0 1 1-32 0 16 16 0 0 1 32 0Z"/>
  <text x="74" y="288" fill="#ffffff" font-family="Inter, ui-sans-serif, system-ui, -apple-system, BlinkMacSystemFont, Segoe UI, sans-serif" font-size="72" font-weight="900">LaunchLift AI</text>
  <text x="78" y="356" fill="#d9fff8" font-family="Inter, ui-sans-serif, system-ui, -apple-system, BlinkMacSystemFont, Segoe UI, sans-serif" font-size="34" font-weight="760">Turn no-code web apps into Android launch packages</text>
  <g fill="none" stroke="#7df6e5" stroke-width="2">
    <rect x="78" y="424" width="210" height="56" rx="28"/>
    <rect x="314" y="424" width="190" height="56" rx="28"/>
    <rect x="530" y="424" width="235" height="56" rx="28"/>
  </g>
  <g fill="#ffffff" font-family="Inter, ui-sans-serif, system-ui, -apple-system, BlinkMacSystemFont, Segoe UI, sans-serif" font-size="22" font-weight="800">
    <text x="114" y="460">Play Store kit</text>
    <text x="350" y="460">APK / AAB path</text>
    <text x="566" y="460">Native feature plan</text>
  </g>
  <rect x="840" y="108" width="250" height="420" rx="42" fill="#070b12" stroke="#ffffff" stroke-opacity="0.18"/>
  <rect x="866" y="148" width="198" height="340" rx="28" fill="#f8fafc"/>
  <rect x="888" y="178" width="154" height="24" rx="12" fill="#15a592"/>
  <rect x="888" y="230" width="128" height="14" rx="7" fill="#35215f" opacity="0.72"/>
  <rect x="888" y="260" width="152" height="14" rx="7" fill="#35215f" opacity="0.28"/>
  <rect x="888" y="290" width="116" height="14" rx="7" fill="#35215f" opacity="0.28"/>
  <rect x="888" y="350" width="152" height="70" rx="18" fill="#171123"/>
  <circle cx="920" cy="386" r="14" fill="#7df6e5"/>
  <rect x="950" y="374" width="66" height="12" rx="6" fill="#ffffff" opacity="0.86"/>
  <rect x="950" y="396" width="48" height="10" rx="5" fill="#ffffff" opacity="0.48"/>
</svg>
